<svg width="35" height="35" viewBox="0 0 35 35" fill="none" xmlns="http://www.w3.org/2000/svg">
<path d="M25.29 17.0029H13.51L8 14.6686V12.8771L13.51 10.5429H25.29L27 10V12.7957L25.29 12.2529H13.51L9.84571 13.7729L13.51 15.2657H25.29L27 14.7229V17.5457L25.29 17.0029ZM27 25.9028H8V19.4428H27V25.9028ZM9.71 24.1657H25.29V21.1528H9.71V24.1657Z" fill="#9CA3AF"/>
<path d="M17.4999 1.35001C26.4193 1.35001 33.6499 8.58061 33.6499 17.5C33.6499 26.4194 26.4193 33.65 17.4999 33.65C8.58052 33.65 1.34991 26.4194 1.34991 17.5C1.34991 8.58061 8.58052 1.35001 17.4999 1.35001Z" stroke="#9CA3AF" stroke-width="2"/>
<path d="M21.0677 22.8149L21 22H21.0723L21.1412 22.7862H21.1469L21.2238 22.0115H21.2996L21.1882 22.8149H21.0677ZM21.4433 22.8149C21.4119 22.8149 21.3901 22.8099 21.3779 22.8C21.3656 22.79 21.3595 22.7736 21.3595 22.7506V22.0275C21.3764 22.0184 21.3982 22.0115 21.4249 22.0069C21.4525 22.0023 21.4888 22 21.534 22C21.5546 22 21.5715 22.0054 21.5845 22.0161C21.5975 22.026 21.604 22.039 21.604 22.0551L21.596 22.8149H21.4433ZM21.5145 22.7495L21.5248 22.7391L21.5317 22.0838C21.5317 22.08 21.5282 22.0777 21.5213 22.0769L21.4502 22.0735L21.4399 22.0803L21.433 22.7426L21.5145 22.7495ZM21.9351 22.8149H21.7182V22H21.8295L21.8054 22.7208L21.9351 22.7414V22.8149ZM22.2859 22.7919H22.0162L22.0426 22H22.2756V22.0895H22.1115V22.3259H22.2366V22.3833L22.1172 22.404V22.6967L22.2722 22.676L22.2859 22.7919ZM22.6261 22.8149H22.5584L22.4976 22.4269L22.4723 22.4465V22.8149H22.3954L22.3805 22.0115L22.4104 22H22.4586V22.3879L22.5401 22.3191L22.5274 22.0264L22.6261 22L22.602 22.3546L22.555 22.3914L22.6468 22.7908L22.6261 22.8149ZM22.9013 22.4407L22.8095 22.451L22.8221 22.8149H22.7418L22.7154 22H22.8083V22.373L22.8933 22.3558V22.023H22.9931V22.0712L22.9759 22.0987L23 22.8378H22.9254L22.9013 22.4407Z" fill="#9CA3AF"/>
<path d="M25.29 17.0029H13.51L8 14.6686V12.8771L13.51 10.5429H25.29L27 10V12.7957L25.29 12.2529H13.51L9.84571 13.7729L13.51 15.2657H25.29L27 14.7229V17.5457L25.29 17.0029ZM27 25.9028H8V19.4428H27V25.9028ZM9.71 24.1657H25.29V21.1528H9.71V24.1657Z" fill="#9CA3AF"/>
<path d="M17.4999 1.35001C26.4193 1.35001 33.6499 8.58061 33.6499 17.5C33.6499 26.4194 26.4193 33.65 17.4999 33.65C8.58052 33.65 1.34991 26.4194 1.34991 17.5C1.34991 8.58061 8.58052 1.35001 17.4999 1.35001Z" stroke="#9CA3AF" stroke-width="2"/>
<path d="M21.0677 22.8149L21 22H21.0723L21.1412 22.7862H21.1469L21.2238 22.0115H21.2996L21.1882 22.8149H21.0677ZM21.4433 22.8149C21.4119 22.8149 21.3901 22.8099 21.3779 22.8C21.3656 22.79 21.3595 22.7736 21.3595 22.7506V22.0275C21.3764 22.0184 21.3982 22.0115 21.4249 22.0069C21.4525 22.0023 21.4888 22 21.534 22C21.5546 22 21.5715 22.0054 21.5845 22.0161C21.5975 22.026 21.604 22.039 21.604 22.0551L21.596 22.8149H21.4433ZM21.5145 22.7495L21.5248 22.7391L21.5317 22.0838C21.5317 22.08 21.5282 22.0777 21.5213 22.0769L21.4502 22.0735L21.4399 22.0803L21.433 22.7426L21.5145 22.7495ZM21.9351 22.8149H21.7182V22H21.8295L21.8054 22.7208L21.9351 22.7414V22.8149ZM22.2859 22.7919H22.0162L22.0426 22H22.2756V22.0895H22.1115V22.3259H22.2366V22.3833L22.1172 22.404V22.6967L22.2722 22.676L22.2859 22.7919ZM22.6261 22.8149H22.5584L22.4976 22.4269L22.4723 22.4465V22.8149H22.3954L22.3805 22.0115L22.4104 22H22.4586V22.3879L22.5401 22.3191L22.5274 22.0264L22.6261 22L22.602 22.3546L22.555 22.3914L22.6468 22.7908L22.6261 22.8149ZM22.9013 22.4407L22.8095 22.451L22.8221 22.8149H22.7418L22.7154 22H22.8083V22.373L22.8933 22.3558V22.023H22.9931V22.0712L22.9759 22.0987L23 22.8378H22.9254L22.9013 22.4407Z" fill="#9CA3AF"/>
</svg>
